<?xml version="1.0" standalone="no"?>
<!DOCTYPE svg PUBLIC "-//W3C//DTD SVG 20010904//EN"
 "http://www.w3.org/TR/2001/REC-SVG-20010904/DTD/svg10.dtd">
<svg version="1.0" xmlns="http://www.w3.org/2000/svg"
 width="100.000000pt" height="100.000000pt" viewBox="0 0 100.000000 100.000000"
 preserveAspectRatio="xMidYMid meet">
<metadata>
Created by potrace 1.14, written by Peter Selinger 2001-2017
</metadata>
<g transform="translate(0.000000,100.000000) scale(0.100000,-0.100000)"
fill="#000000" stroke="none">
<path d="M240 991 c0 -6 -5 -10 -11 -8 -6 1 -13 -6 -14 -15 -2 -10 0 -18 4
-18 4 0 8 -7 8 -15 0 -8 -4 -12 -9 -9 -4 3 -8 -11 -8 -30 0 -49 1 -51 12 -48
5 1 7 -2 3 -8 -3 -6 -11 -7 -17 -4 -8 5 -9 1 -5 -10 4 -10 2 -26 -3 -37 -7
-11 -7 -19 -1 -19 5 0 12 6 14 13 4 8 6 9 6 0 1 -6 -5 -18 -12 -25 -7 -7 -13
-33 -14 -58 -4 -109 -9 -166 -16 -177 -4 -6 -2 -13 4 -15 9 -3 9 -9 1 -25 -6
-11 -8 -23 -5 -27 13 -12 14 -48 1 -40 -7 4 -8 3 -4 -5 4 -6 2 -19 -6 -28 -11
-14 -11 -16 1 -8 11 6 13 2 7 -19 -5 -21 -4 -26 6 -20 7 4 5 -2 -5 -13 -16
-18 -16 -21 -2 -33 11 -9 12 -16 5 -25 -8 -10 -8 -15 1 -20 8 -6 7 -10 -2 -16
-12 -7 -12 -9 0 -9 7 0 11 -6 7 -15 -3 -9 0 -15 9 -15 10 0 15 -12 16 -37 0
-34 6 -99 11 -129 1 -8 11 -9 32 -3 17 5 32 9 34 9 2 0 0 5 -3 10 -3 6 -1 10
4 10 10 0 15 -13 12 -32 0 -3 7 -5 17 -3 9 2 21 4 26 4 5 1 6 4 3 8 -4 3 -2
12 4 19 7 8 7 14 -1 19 -8 5 -7 12 2 23 12 15 11 16 -5 3 -16 -12 -17 -11 -14
10 4 24 37 41 37 19 0 -6 6 -8 13 -4 9 5 9 4 0 -6 -9 -10 -10 -17 -1 -27 9
-11 14 -10 31 4 11 10 17 12 13 5 -4 -7 -1 -15 8 -18 9 -3 16 -16 16 -29 0
-23 21 -38 53 -38 55 2 68 4 63 12 -4 5 4 7 16 3 14 -3 19 -1 14 6 -3 6 -2 13
4 17 5 3 10 0 10 -7 1 -10 4 -9 13 2 12 15 70 22 61 8 -3 -4 0 -8 5 -8 6 0 11
5 11 10 0 6 7 10 15 10 8 0 15 5 15 10 0 6 8 10 17 10 13 0 14 3 6 11 -9 9 -6
17 8 32 10 11 19 27 19 34 0 8 4 11 10 8 6 -3 7 1 4 9 -3 9 -11 16 -18 16 -7
0 -7 3 1 8 7 4 14 35 17 69 2 34 7 66 10 72 4 6 3 11 -3 11 -7 0 -7 8 0 27 7
20 6 28 -3 35 -10 6 -10 8 0 8 14 0 12 21 -3 32 -6 5 -5 8 4 8 11 0 11 3 0 17
-8 9 -9 14 -3 10 7 -4 17 -1 23 7 9 11 7 15 -9 19 -11 3 -20 13 -20 23 0 16
-2 16 -22 -2 -19 -15 -20 -16 -9 -1 14 18 8 22 -29 18 -13 -2 -13 -1 0 8 8 5
19 7 25 5 5 -3 -2 5 -17 18 -16 13 -28 28 -28 32 0 13 -41 46 -51 41 -4 -3
-11 0 -15 6 -5 8 -3 9 7 4 12 -8 12 -6 0 9 -11 13 -16 14 -22 4 -7 -10 -9 -10
-9 0 0 7 -13 12 -31 12 -22 0 -32 -5 -36 -20 -5 -18 -30 -33 -49 -29 -13 3
-44 -11 -77 -34 -15 -10 -35 -16 -43 -13 -8 3 -12 2 -9 -4 3 -6 -1 -10 -9 -10
-19 0 -21 11 -4 28 9 9 9 12 -1 12 -7 0 -9 5 -6 11 4 6 -1 17 -11 25 -17 14
-17 15 -1 10 20 -6 23 14 5 33 -10 11 -10 13 0 7 6 -4 12 -4 13 1 0 4 2 16 4
26 3 14 0 16 -10 7 -10 -8 -15 -8 -21 1 -4 7 -3 9 4 5 6 -3 14 4 18 16 11 33
12 58 3 58 -5 0 -6 7 -3 15 4 8 1 15 -4 15 -6 0 -9 -9 -7 -20 2 -11 -1 -20 -6
-20 -6 0 -5 -8 1 -21 7 -11 9 -23 6 -27 -3 -3 -6 0 -6 7 0 7 -4 10 -8 7 -4 -2
-9 4 -9 15 -1 11 -9 34 -17 51 -17 34 -21 52 -8 44 4 -2 8 4 8 15 0 20 -6 24
-22 12 -5 -5 1 2 14 15 13 12 18 22 12 22 -6 0 -9 4 -6 8 8 13 -28 11 -37 -2
-4 -6 -6 0 -5 13 2 13 -3 26 -9 28 -7 3 -13 0 -13 -6z m318 -461 c1 -2 6 -3
11 -4 18 -2 48 -42 59 -77 25 -79 3 -206 -44 -250 -28 -27 -45 -32 -97 -31
-70 0 -115 53 -120 140 -1 23 -6 42 -12 42 -5 0 -3 5 5 10 13 9 13 10 0 10
-13 0 -13 1 0 10 12 7 12 12 3 21 -9 9 -16 9 -30 -2 -10 -8 -6 0 7 17 14 17
28 29 33 27 4 -2 7 2 7 10 0 20 52 67 86 77 24 7 83 7 92 0z m-368 -230 c0 -5
-2 -10 -4 -10 -3 0 -8 5 -11 10 -3 6 -1 10 4 10 6 0 11 -4 11 -10z m215 -200
c-3 -5 -12 -10 -18 -10 -7 0 -6 4 3 10 19 12 23 12 15 0z m120 -23 c1 -7 7
-10 15 -9 8 2 11 0 7 -5 -5 -4 -24 -9 -43 -9 -28 -1 -32 1 -23 12 6 8 18 14
26 14 8 0 11 5 7 13 -4 7 -3 9 2 4 5 -5 9 -14 9 -20z m-202 -10 c4 3 7 1 7 -5
0 -15 -17 -16 -25 -2 -4 6 -11 7 -17 4 -7 -4 -8 -2 -4 5 6 8 12 9 20 2 7 -6
16 -8 19 -4z m-60 -4 c3 -5 -5 -8 -18 -8 -13 0 -21 3 -18 8 2 4 10 7 18 7 8 0
16 -3 18 -7z m-9 -21 c3 -5 -1 -9 -9 -9 -8 0 -12 4 -9 9 3 4 7 8 9 8 2 0 6 -4
9 -8z"/>
<path d="M410 70 c0 -5 5 -10 11 -10 5 0 7 5 4 10 -3 6 -8 10 -11 10 -2 0 -4
-4 -4 -10z"/>
</g>
</svg>
